Coordinates
version=1
nRows=21
nColumns=38
inDegrees=no

Units are S.I. units (second, meters, Newtons, ...)
If the header above contains a line with 'inDegrees', this indicates whether rotational values are in degrees (yes) or radians (no).

endheader
time	pelvis_tilt	pelvis_list	pelvis_rotation	pelvis_tx	pelvis_ty	pelvis_tz	hip_flexion_r	hip_adduction_r	hip_rotation_r	knee_angle_r	ankle_angle_r	subtalar_angle_r	mtp_angle_r	hip_flexion_l	hip_adduction_l	hip_rotation_l	knee_angle_l	ankle_angle_l	subtalar_angle_l	mtp_angle_l	lumbar_extension	lumbar_bending	lumbar_rotation	arm_flex_r	arm_add_r	arm_rot_r	elbow_flex_r	pro_sup_r	wrist_flex_r	wrist_dev_r	arm_flex_l	arm_add_l	arm_rot_l	elbow_flex_l	pro_sup_l	wrist_flex_l	wrist_dev_l
9.65	2.8912	1.29232	-1.08645	0.689954	1.62064	0.947017	-0.252163	0.135297	-0.0185859	0.551177	-0.246642	0	0	0.167266	-0.125281	-0.135565	0.407866	-0.554874	0	0	-0.365137	0.0947086	0.032866	1.25903	0.0219872	1.5708	0.0985318	1.4783	0	0	-0.147545	-0.511754	-0.284018	0.539515	1.5708	0	0
9.66	2.89939	1.29704	-1.0844	0.69118	1.61401	0.947429	-0.243886	0.137171	-0.0215923	0.544276	-0.243356	0	0	0.163713	-0.116688	-0.115159	0.370839	-0.581832	0	0	-0.35288	0.0970977	0.0544225	1.24963	0.000588944	1.5708	0.0851093	1.47381	0	0	-0.106312	-0.525539	-0.212755	0.51446	1.5708	0	0
9.67	2.90885	1.30222	-1.08357	0.692316	1.60748	0.947779	-0.235293	0.138087	-0.0251684	0.537664	-0.240219	0	0	0.159646	-0.108197	-0.0940672	0.332336	-0.610211	0	0	-0.339535	0.0986608	0.076506	1.23911	-0.0223684	1.5708	0.0729256	1.46653	0	0	-0.0613261	-0.538355	-0.13111	0.486995	1.5708	0	0
9.68	2.91888	1.30677	-1.08357	0.693399	1.60111	0.948075	-0.227748	0.138798	-0.0290696	0.530837	-0.237033	0	0	0.158328	-0.102782	-0.0819995	0.30247	-0.635232	0	0	-0.326271	0.100126	0.0992778	1.22797	-0.0464077	1.5708	0.0612014	1.46136	0	0	-0.0132688	-0.549141	-0.0416875	0.458162	1.5708	0	0
9.69	2.92979	1.31041	-1.08485	0.694462	1.59485	0.948361	-0.221393	0.139345	-0.033473	0.523939	-0.233896	0	0	0.158441	-0.0993747	-0.0754095	0.279635	-0.652713	0	0	-0.314297	0.10137	0.121127	1.21697	-0.0697264	1.5708	0.0502966	1.4565	0	0	0.0346823	-0.557103	0.0484679	0.430625	1.5708	0	0
9.7	2.94031	1.31356	-1.08623	0.69547	1.58873	0.948635	-0.215618	0.13967	-0.0382863	0.517053	-0.231184	0	0	0.159781	-0.0973316	-0.0717258	0.263669	-0.659082	0	0	-0.30299	0.102163	0.142057	1.20597	-0.0927763	1.5708	0.0412995	1.44959	0	0	0.0809698	-0.5623	0.136768	0.405891	1.5708	0	0
9.71	2.95037	1.31611	-1.08818	0.69639	1.58273	0.948923	-0.210253	0.139679	-0.0427523	0.510842	-0.229351	0	0	0.161922	-0.0966479	-0.071256	0.255205	-0.653296	0	0	-0.291597	0.102883	0.16452	1.19407	-0.117538	1.5708	0.0340262	1.44069	0	0	0.131305	-0.564852	0.238253	0.376793	1.5708	0	0
9.72	2.96161	1.31764	-1.09221	0.697284	1.57683	0.949254	-0.205924	0.1395	-0.0465409	0.505063	-0.22778	0	0	0.164448	-0.0971115	-0.0743783	0.255354	-0.633935	0	0	-0.281593	0.102928	0.186907	1.18221	-0.142635	1.5708	0.0287818	1.43132	0	0	0.181358	-0.563551	0.337938	0.34734	1.5708	0	0
9.73	2.97466	1.31856	-1.09855	0.698241	1.57112	0.949645	-0.202569	0.139304	-0.0495846	0.499172	-0.226312	0	0	0.166533	-0.0978445	-0.0787803	0.261527	-0.602444	0	0	-0.273616	0.102109	0.206462	1.17132	-0.164721	1.5708	0.0242231	1.42172	0	0	0.225036	-0.559976	0.423277	0.322774	1.5708	0	0
9.74	2.99004	1.3191	-1.10793	0.699155	1.56561	0.950141	-0.199994	0.138529	-0.0521751	0.493412	-0.225184	0	0	0.166976	-0.0981161	-0.0830977	0.269967	-0.564639	0	0	-0.266588	0.100285	0.225029	1.1603	-0.185765	1.5708	0.0207532	1.41042	0	0	0.265026	-0.554706	0.501639	0.301003	1.5708	0	0
9.75	3.00907	1.319	-1.12173	0.700005	1.5603	0.950784	-0.198723	0.136789	-0.0540495	0.487634	-0.224475	0	0	0.166368	-0.0981642	-0.0903916	0.282646	-0.525805	0	0	-0.26095	0.0975183	0.242625	1.14942	-0.205507	1.5708	0.0176802	1.40033	0	0	0.300889	-0.548453	0.571722	0.282699	1.5708	0	0
9.76	3.03188	1.31667	-1.14035	0.700793	1.55495	0.951675	-0.200056	0.134557	-0.0541616	0.48195	-0.22437	0	0	0.163821	-0.0989254	-0.101342	0.300306	-0.492012	0	0	-0.25892	0.0949528	0.259158	1.13997	-0.223268	1.5708	0.0149398	1.39035	0	0	0.332564	-0.541596	0.632251	0.268197	1.5708	0	0
9.77	3.05594	1.31371	-1.16069	0.701534	1.54976	0.952665	-0.202476	0.13195	-0.0533929	0.475974	-0.225069	0	0	0.161248	-0.100595	-0.115437	0.322682	-0.465694	0	0	-0.258201	0.0918745	0.274137	1.13104	-0.239052	1.5708	0.0123116	1.38223	0	0	0.358903	-0.535879	0.67923	0.260197	1.5708	0	0
9.78	3.0803	1.31005	-1.1815	0.702216	1.54478	0.953722	-0.206044	0.129164	-0.0523408	0.46965	-0.226361	0	0	0.158633	-0.103745	-0.132398	0.349681	-0.446528	0	0	-0.259003	0.0887587	0.286279	1.12311	-0.251468	1.5708	0.00918714	1.37684	0	0	0.377651	-0.533236	0.706106	0.262211	1.5708	0	0
9.79	3.10101	1.3068	-1.19893	0.702815	1.54002	0.954699	-0.208957	0.126681	-0.0512766	0.463572	-0.227713	0	0	0.157894	-0.1091	-0.151805	0.382493	-0.426718	0	0	-0.258323	0.0859489	0.298722	1.11419	-0.264651	1.5708	0.00713204	1.37043	0	0	0.39618	-0.530085	0.73223	0.263552	1.5708	0	0
9.8	3.12066	1.30069	-1.21544	0.703358	1.53504	0.955795	-0.214257	0.124963	-0.0500259	0.457762	-0.229094	0	0	0.154954	-0.116612	-0.170383	0.41875	-0.406816	0	0	-0.262172	0.0856568	0.30819	1.10857	-0.273789	1.5708	0.00355423	1.36597	0	0	0.410884	-0.528054	0.751284	0.267246	1.5708	0	0
9.81	3.13511	1.29565	-1.22687	0.703835	1.53026	0.956721	-0.218015	0.1237	-0.0488162	0.452336	-0.231174	0	0	0.153372	-0.125806	-0.186653	0.456772	-0.385481	0	0	-0.264116	0.0859979	0.317017	1.10248	-0.282562	1.5708	0.000709058	1.36158	0	0	0.424132	-0.526726	0.769304	0.27176	1.5708	0	0
9.82	-3.1379	1.29147	-1.23396	0.704197	1.52563	0.957492	-0.220495	0.122847	-0.0479748	0.447412	-0.233923	0	0	0.153898	-0.136808	-0.201466	0.50035	-0.367498	0	0	-0.264334	0.0869797	0.325409	1.0959	-0.291801	1.5708	0	1.35618	0	0	0.436897	-0.525451	0.786655	0.276094	1.5708	0	0
9.83	-3.12961	1.28813	-1.2391	0.704443	1.52111	0.958169	-0.221835	0.121774	-0.047944	0.443108	-0.236498	0	0	0.152523	-0.147209	-0.210147	0.534546	-0.353704	0	0	-0.263464	0.0880042	0.332945	1.08917	-0.300524	1.5708	0	1.3511	0	0	0.44866	-0.52423	0.800584	0.28096	1.5708	0	0
9.84	-3.12334	1.28543	-1.24228	0.704616	1.51668	0.958763	-0.222136	0.120554	-0.0489608	0.439487	-0.239039	0	0	0.153099	-0.158794	-0.218095	0.574735	-0.349308	0	0	-0.261762	0.089135	0.339897	1.08231	-0.308649	1.5708	0	1.34637	0	0	0.459619	-0.523261	0.812215	0.286319	1.5708	0	0
9.85	-3.11884	1.28312	-1.24338	0.704768	1.51236	0.959298	-0.222029	0.119663	-0.0506219	0.435675	-0.242267	0	0	0.153942	-0.170981	-0.222999	0.615352	-0.349336	0	0	-0.259195	0.0902731	0.346524	1.07485	-0.316643	1.5708	0	1.33963	0	0	0.471598	-0.522159	0.828225	0.289723	1.5708	0	0
